<?xml version="1.0" standalone="no"?>
<!DOCTYPE svg PUBLIC "-//W3C//DTD SVG 20010904//EN"
 "http://www.w3.org/TR/2001/REC-SVG-20010904/DTD/svg10.dtd">
<svg version="1.0" xmlns="http://www.w3.org/2000/svg"
 width="1523.000000pt" height="1523.000000pt" viewBox="0 0 1523.000000 1523.000000"
 preserveAspectRatio="xMidYMid meet">
<metadata>
Created by potrace 1.11, written by Peter Selinger 2001-2013
</metadata>
<g transform="translate(0.000000,1523.000000) scale(0.100000,-0.100000)"
fill="#000000" stroke="none">
<path d="M7167 15164 c-1 -1 -229 -5 -507 -8 -495 -6 -688 -9 -1080 -21 -412
-12 -1034 -38 -1430 -60 -47 -3 -128 -7 -180 -10 -111 -6 -221 -13 -340 -21
-99 -7 -147 -10 -290 -19 -58 -4 -121 -8 -140 -10 -19 -2 -78 -6 -130 -10 -52
-4 -108 -9 -125 -10 -16 -2 -73 -6 -125 -9 -52 -4 -106 -9 -120 -11 -14 -2
-68 -7 -120 -11 -52 -3 -108 -8 -125 -10 -16 -2 -64 -6 -105 -10 -41 -3 -91
-7 -110 -9 -19 -2 -69 -7 -110 -11 -41 -3 -83 -8 -92 -10 -9 -1 -48 -6 -85 -9
-37 -4 -79 -8 -93 -10 -14 -2 -56 -7 -95 -10 -38 -4 -77 -8 -85 -11 -13 -3
-15 -481 -14 -4256 1 -2339 4 -4262 7 -4273 2 -11 8 -47 11 -80 4 -33 9 -71
10 -85 4 -36 17 -131 22 -162 2 -16 6 -40 8 -55 12 -76 19 -120 22 -138 3 -17
11 -66 20 -120 3 -20 21 -114 28 -150 3 -11 14 -63 25 -115 11 -53 36 -161 56
-240 20 -80 38 -152 40 -160 13 -56 84 -289 126 -413 178 -533 425 -1052 713
-1497 44 -69 83 -127 86 -130 3 -3 18 -25 33 -49 30 -45 196 -272 206 -281 3
-3 20 -23 36 -45 136 -183 430 -500 676 -730 75 -70 314 -275 379 -325 25 -19
47 -37 50 -40 5 -6 165 -125 240 -178 54 -39 298 -203 322 -217 9 -5 70 -42
135 -82 607 -369 1345 -677 2058 -858 230 -58 282 -70 455 -100 162 -28 170
-28 296 -1 12 2 37 7 55 10 19 3 63 12 99 20 36 8 76 17 90 19 47 9 364 88
450 113 183 53 232 68 420 131 616 204 1252 512 1765 854 142 95 234 158 251
174 6 6 22 17 34 25 55 36 323 251 406 325 255 226 434 407 669 675 175 199
460 601 617 870 84 143 95 163 178 325 244 474 434 987 571 1543 23 91 43 178
46 192 2 14 10 52 18 85 7 33 16 77 19 99 4 21 8 41 10 45 2 3 7 31 11 61 4
30 8 57 10 60 2 3 6 26 10 50 3 25 10 70 15 100 5 30 12 72 15 93 10 71 16
112 20 137 2 14 9 72 15 130 6 58 14 125 17 150 4 33 8 8423 4 8486 -1 6 -9
11 -18 11 -19 -1 -167 12 -206 18 -12 2 -60 6 -107 10 -47 3 -98 8 -115 9 -16
2 -68 6 -115 10 -47 4 -101 9 -120 11 -19 2 -73 7 -120 10 -47 3 -101 8 -120
10 -19 2 -75 7 -124 10 -49 3 -107 8 -130 10 -22 2 -81 7 -131 10 -49 4 -110
8 -135 10 -25 2 -90 6 -145 9 -55 4 -120 9 -145 11 -25 2 -90 7 -145 10 -55 3
-127 8 -160 10 -33 2 -105 7 -160 10 -55 3 -131 7 -170 10 -38 2 -117 7 -175
10 -58 3 -139 8 -180 10 -41 2 -131 7 -200 10 -69 3 -170 8 -225 10 -214 11
-316 15 -465 20 -85 3 -207 7 -270 10 -386 14 -777 23 -1350 31 -464 6 -1140
11 -1143 8z"/>
</g>
</svg>
